<?xml version="1.0" encoding="utf-8"?>
<!-- Generator: Adobe Illustrator 17.1.0, SVG Export Plug-In . SVG Version: 6.00 Build 0)  -->
<!DOCTYPE svg PUBLIC "-//W3C//DTD SVG 1.1//EN" "http://www.w3.org/Graphics/SVG/1.1/DTD/svg11.dtd">
<svg version="1.1" id="Layer_1" xmlns="http://www.w3.org/2000/svg" xmlns:xlink="http://www.w3.org/1999/xlink" x="0px" y="0px"
	 viewBox="0 0 894 980" enable-background="new 0 0 894 980" xml:space="preserve">
<path fill="#D1D3D4" d="M75.335,965.999l0.769-10.24l3.415-3.726l19.673-6.356l0.654,1.902L75.335,965.999L75.335,965.999z
	 M140.422,856.273l-3.917-7.993l3.257-3.025l4.558-0.488l2.331,1.092l3.283,4.899L140.422,856.273L140.422,856.273z
	 M158.785,849.381l9.566-22.264l1.738,1.951l-7.406,20.844L158.785,849.381L158.785,849.381z M152.992,815.532l2.427-20.827
	l-2.884-4.598l0.771-4.832l2.04-0.668l3.694-1.887l-3.485-2.545l-8.325,12.53l3.465,15.007l-19.325-8.066l1.68-7.115l4.579-5.346
	l-2.741-8.716l-2.572-1.87l3.805-20.484l5.668-3.131l12.697-19.926l-5.854-2.119l4.947-4.739l-10.151-20.159l-3.09-2.587
	l-2.067,1.229l-0.697,11.438l7.155,8.078l-1.963,5.165l-8.506,1.961l-0.123-7.609l-14.956,8.337h-1.783l0.821-7.803l-6.014-11.187
	l3.948-6.372l2.945,2.296l2.408-0.056l-10.885-12.547l-4.18,2.381l-2.042-1.17l6.644-7.996l12.48,2.394l-0.748-5.918l1.529-1.82
	l6.765,1.455l3.09-0.423l3.771-5.556l3.996-1.35l3.268,1.367l2.583-0.127l-0.98-3.496l10.083-10.145l2.866-1.304l8.038,0.005
	l3.817-2.264l-1.296-5.117l4.375-16.238l10.302-2.039l3.011,1.13l60.867-44.397l1.246-4.172l-0.256-2.565l21.762-6.156l4.252,2.142
	l2.87,3.559l79.423-12.585l3.864,4.161l0.5,7.417l3.909,0.439l6.022-1.573l1.897,2.086l4.317,0.15l16.285-11.011l-2.448-17.381
	l27.759-33.398l3.772-13.968l-2.219-12.672l1.064-3.65l4.228-5.176l19.956-9.069l3.392,4.472l-11.784,12.595l-7.122,3.174
	l0.718,2.873l2.814,1.727l2.853,14.122l4.147,2.004l55.78-32.513l12.937-24.145l22.212-19.438l22.545-82.524l-1.022-3.111
	l-11.038-4.073l0.557-6.417l2.044,0.576l4.57-2.417l3.459-10.026l-5.446-18.404l2.384-5.548l8.641-4.274l4.31-5.274l1.562-18.751
	l8.1,0.009l4.275,1.886l4.229,15.714l4.853-0.067l1.633-6.854l10.802,4.831l2.649-7.804l-0.771-7.638l-1.351-1.717l-14.384,5.824
	l-2.457-2.592l4.288-15.511l10.042,0.057l9.341,3.621l3.395-0.354l2.092,37.214l20.722,34.089l2.124,40.653l-7.12,14.037
	l-3.441,2.541l-4.571,34.415l-8.648-5.754l-6.729,3.955l-18.679,115.377l10.773,19.692l-0.564,4.044l-9.542,4.062l-12.167,27.487
	l-17.983,11.232l-1.839-2.411l-0.111-15.981l11.277-17.908l-1.766-1.844l-5.67-0.337l-1.924,0.903l-8.424,12.955l1.626,3.422
	l-0.275,7.084l-3.519-0.261l-6.551-6.35l-5.529,0.662l-3.151,1.986l-11.546,33.075l-2.386,1.195l-5.556-2.395l-1.464-9.185
	l4.771-11.361l-7.103-3.358l-4.801,1.644l-14.704,22.317l-48.604,4.981l-2.44-1.273l9.432-7.673l-12.79-2.549l0.436,2.578
	l-1.291,2.578l-4.242-3.801l-0.955-3.717l0.947-7.551l-2.18-2.156l-10.622,17.061l2.825,5.11l13.997,9.686l-0.33,3.874l-4.457,5.555
	l-1.047-1.82l-1.96-0.78l-18.335,7.952l-19.706,32.854l-5.774,4.064l-8.03-2.981l-18.837-19.454l-1.591-4.423l1.11-3.177
	l-0.527-12.924l2.767-5.19l9.82-8.618l2.109-6.927l-3.372-3.928l-5.454,3.219l-7.155,1.324l-18.317-7.748l-24.896,10.213
	l-2.695,3.631l-10.192,0.787l-3.086-1.566l-2.574,1.243l-7.399,0.38l-2.443,3.324l-3.966,1.867l-1.445-1.076l-12.888,8.579
	l1.357-4.678l2.355-0.281l-3.902-1.182l-17.238,7.511l0.739,2.234l-3.338,2.449l-2.259-0.943l2.688-5.879l-2.426-5.576l-4.162-0.789
	l-5.806,12.68l-0.071,5.587l6.465,1.388l1.862,2.217l-5.511,1.555l-6.393-2.436l-0.605,3.284l-2.778,3.544l-4.711-6.782
	l-8.819-4.886l-0.488-2.199l-8.723,2.248l-6.481-0.814l-6.948,3.025l-6.376-5.297l-3.417,1.214l-1.969,2.436l5.313,16.062
	l4.55,2.051l19.1-1.693l3.486,7.356l-3.018,6.139l-6.021,3.251l-0.551,1.821l12.056,2.815l1.778,4.199l0.091,3.217l3.145,1.688
	l0.625,2.873l-1.926,1.598l5.176,4.476l-37.504,77.462l-6.665-3.252l-4.552,3.728l2.889,5.074l-11.805,10.277L152.992,815.532
	L152.992,815.532z M125.866,750.392l1.165-12.142l3.633-3.817l4.041,0.13l1.568,11.549l-3.534,3.051L125.866,750.392
	L125.866,750.392z M142.569,743.982l-2.873-0.824l-2.446-2.653l1.951-3.201l4.86-0.984l1.963,5.179L142.569,743.982L142.569,743.982
	z M257.252,732.269l-12.186-2.332l-0.165-5.033l-7.878-5.045l-1.183-13.168l3.86-2.287l-4.228-1.759l-1.643-3.587l-5.352-3.427
	l-9.819,3.278l41.773-39.816l5.345,6.5l6.814,1.668l12.717-1.68l4.127-6.038l-1.054-6.515l4.035-0.055l6.448-2.666l20.149,0.695
	l13.984,5.8l3.139,19.911l-0.396,1.593l-15.219,11.311l-7.936,17.3l-19.789-14.32l-15.819,7.349l-17.123,24.763l1.316,8.482
	L257.252,732.269L257.252,732.269z M335.728,655.759l-2.358-3.124l11.262-13.312l5.077-1.99l-6.447,19.649L335.728,655.759
	L335.728,655.759z M484.28,467.805l3.721-5.255l-2.167-4l-0.331-4.407l10.122-13.219l-0.453,12.799h2.412l0.968,6.52l-6.911,7.71
	L484.28,467.805L484.28,467.805z M555.508,276.908l-4.189-7.548l4.316-21.224l-14.109-18.004l7.916-20.608l13.43-7.634l5.637-8.913
	l-5.887-14.124l1.379-3.752l35.952,5.448l3.896-5.834l-2.481-20.36l10.206-22.915l-1.1-6.773l4.54-21.789l-8.579-35.114l3.627-6.893
	l7.593-4.352l72.556,67.193l1.277,2.812l13.558,0.789l0.84,1.996l1.095-1.671l18.443,7.433l6.054-2.849l17.866-20.424l1.501,5.333
	l-6.654,24.863l9.39,9.969l-0.976,1.968l-0.977,0.895l3.575,10.817l2.073,1.27l10.547-7.781l-2.125,7.121l-20.456,16.453
	l-8.814,1.089l-2.497,2.325l-0.19,1.951l-19.433-0.729l-25.125,25.124l-10.767,32.506l-61.436-32.231l-23.052,13.965l-7.105-0.104
	l-8.765-9.654l-4.533-0.735l-8.567,8.88l-1.903,5.1l13.269,8.927l2.604-0.65l19.837,16.336l-2.932,3.537l-15.827-1.901l-2.203,0.522
	l-14.951,18.573L555.508,276.908L555.508,276.908z M781.805,152.907l2.689-2.767l-0.41,4.441L781.805,152.907L781.805,152.907z
	 M756.669,142.953l17.815-37.729l8.509-5.118l12.868,1.273l-33.187,35.644l-2.59,7.66L756.669,142.953L756.669,142.953z
	 M800.901,140.028l0.325-6.051l6.93-3.438l3.286,3.303l-4.065,4.152L800.901,140.028L800.901,140.028z M805.302,99.142l1.616-5.419
	l5.204-5.149l2.94-9.351l23.001-25.396l1.704-4.694l4.812-1.278l2.356,2.656l4.053-0.753l21.396-15.483h2.115l-0.034,5.213
	l-37.423,30.194l-3.258-0.432l-27.412,32.592L805.302,99.142L805.302,99.142z"/>
<g>
</g>
<g>
</g>
<g>
</g>
<g>
</g>
<g>
</g>
<g>
</g>
</svg>
