<?xml version="1.0" encoding="utf-8"?>
<!DOCTYPE svg PUBLIC "-//W3C//DTD SVG 1.1//EN" "http://www.w3.org/Graphics/SVG/1.1/DTD/svg11.dtd">
<svg version="1.1" id="Layer_1" xmlns="http://www.w3.org/2000/svg" xmlns:xlink="http://www.w3.org/1999/xlink" x="0px" y="0px"
	 width="1676.671px" height="1846.477px" viewBox="0 0 1676.671 1846.477" enable-background="new 0 0 1676.671 1846.477"
	 xml:space="preserve">
<g>
	<path fill="#E9E9E9" d="M1338.7,1050.517l-19.303,4.529l-2.142,1.241l-1.555,1.621l-0.962,1.995l-0.299,1.466l0.116,3.198
		l0.37,1.701l-328.544,62.693l-193.813-44.438l-257.487-19.756l-44.663,7.899l-35.608,12.458l-130.699-21.233l-127.729-48.827
		l-0.653-1.913l-65.647-97.759l-12.525-31.742l-5.137-28.237l1.05-9.416l2.972-9.005l33.778-65.324l97.193-303.042l37.301-60.222
		l3.067,0.889l47.796,6.376l58.075-7.881l30.232-10.223l33.991,20.654l78.92,27.411l114.519,12.955l219.325-21.722l-0.684-2.921
		L634.559,455.03l-97.003-12.301l-78.33-27.187l-37.636-23.428l-30.369-28.678l-23.015-33.825l-15.578-38.87l31.375,25.022
		l29.886,13.637l18.812,4.559l27.646,1.574l20.557-2.634l-0.605-2.938l-26.715,2.732l-23.88-2.326l-20.739-5.849l-20.166-9.429
		l6.491-4.527l35.302-17.808l38.768-11.887l41.674-5.843l44.02,0.326l102.295,22.356l106.353,51.426l120.515,97.443l251.359,292.975
		l362.724,624.271l6.631,26.604l-3.1,21.592l-9.314,17.92l-26.835,35.894l-12.564,23.629l-12.794,14.052l-25.714,19.175
		l120.34-80.803l23.117-27.849L1598.78,1337l54.306-220.237l4.492-116.127l-24.078-153.14l-125.252-282.617l-125.673-174.947
		l-268.938-247.497l-112.926-75.967L887.449,20.767L771.048,3.311L675.398,8.95l-82.79,21.733L325.93,224.158l-75.64,89.359
		l-13.038,21.42l-57.788-25.162l19.12,33.547l22.193,26.709L186.16,479.836l-11.435,148.53l2.22,35.128l-29.49,107.002
		l-33.777,65.386l-3.131,9.519l-1.125,10.014l1.676,15.361l24.587,62.425l21.667,33.757l-128.625,3.649l-22.89-3.735l-4.78,6.795
		L0,1011.266l8.377,3.782l2.782,0.629l10.644,109.804l19.632,56.093l23.798,42.491l19.532,25.241l32.728,25.629l55.114,25.478
		l25.192,7.028l0.162,47.115l15.368,73.516l22.224,58.954l1.207-0.539l-15.545,39.789l-4.504,24.099l2.114,19.521l8.737,14.866
		l18.375,15.747l22.626,13.972l0,0l0,0l0,0l0,0l31.802,77.386l21.77,94.214l0.292,60.272l0.992,0.125l1.324-40.892l-13.208-79.919
		l-41.455-110.405l21.584,8.749l10.396,2.453l9.756,0.868l9.386-1.078l27.563-11.483l21.308-2.74l18.476,1.158l11.073,3.627
		l0.6-0.801l-11.271-3.712l-18.788-1.214l-21.651,2.744l-19.863,8.163l-22.205,4.115l-27.69-7.833l-27.834-15.456l-22.638-18.754
		l-8.548-14.611l-2.02-19.249l4.502-23.811l15.805-40.474l0.27-0.12l-0.125-0.284l51.4-184.604l11.718-10.456l11.456-27.5
		l28.6-151.797l9.271-6.866l71.779,11.759l19.085,15.844l24.048,87.549l53.015,107.976l30.45,35.173l37.902,22.479l52.227,18.366
		l62.528,11.87l68.69,2.955l59.148-6.997l39.884-16.149l24.983-24.898l14.724-33.193l35.144-129.804l10.375-17.423l16.592-3.418
		l12.914-0.234l4.996-4.369l336.53-97.373l4.747,5.408l25.9-6.895L1338.7,1050.517L1338.7,1050.517z M248.558,341.563l34.906,7.381
		l31.118,1.258l26.926-4.84l22.329-10.913l-1.332-1.9l2.903-1.825l28.54,40.285l27.151,24.483l-31.954,10.361l-56.153,6.799
		l-41.62-5.471l-37.045-15.141l-19.859-13.708l-17.983-17.129l-30.122-44.279L248.558,341.563L248.558,341.563z M909.61,1203.022
		l-11.846,126.309l-31.634,54.258l-59.349,21.734l-96.451-0.404l-110.479-23.685l-26.822-11.249l-20.602-16.921l-29.251-33.717
		l-31.535-56.737l-27.646-86.316l-2.616-31.609l3.125-25.688l11.699-20.012l20.979-10.708l132.638-5.736l157.355,18.133
		l71.004,22.763l38.395,34.182L909.61,1203.022L909.61,1203.022z M270.35,1300.646l-35.518,3.768l-35.302-6.632l-1.117-6.524
		l2.03-138.154l-0.18-0.359l-3.581-11.377l-3.261-42.952l1.965-11.443l8.69-17.713l2.449-3.473l-3.799-30.681l62.451,17.058
		l29.415,21.629l18.647,32.252l5.189,42.47l-11.445,96.13l-13.1,36.941L270.35,1300.646L270.35,1300.646z M17.728,1004.844
		l9.336-11.278l12.201-3.11l160.352,43.799l3.711,30.788l-7.302,12.259l-3.906,10.047l-1.699,11.065l3.329,43.488l3.65,11.817
		l-1.958,137.947l0.945,5.523l-10.513-1.975l-47.795-17.153l-34.47-21.89l-26.491-27.06l-23.842-32.723l-19.319-40.184
		l-19.056-127.211L17.728,1004.844L17.728,1004.844z M138.752,993.035l34.359-6.096l19.221,26.578L138.752,993.035L138.752,993.035z
		 M256.432,1422.308l-18.853,61.88l-26.687-75.734l-11.253-84.749l1.081-15.448l6.965,1.943l31.149,3.117l24.934-1.997l21.034-6.155
		l3.388-3.023L256.432,1422.308L256.432,1422.308z"/>
	<polygon fill="#E9E9E9" points="1673.419,858.371 1669.798,663.97 1650.267,544.326 1590.027,404.457 1487.277,274.064 
		1402.361,199.664 1224.843,100.149 1032.035,50.137 964.751,45.271 1055.782,97.187 1311.487,307.86 1451.16,472.943 
		1564.259,659.736 1639.49,858.845 1661.239,1019.39 1665.692,1010.908 1671.365,991.215 1673.419,858.371 	"/>
</g>
</svg>
