<?xml version="1.0" encoding="utf-8"?>
<!-- Generator: Adobe Illustrator 16.2.1, SVG Export Plug-In . SVG Version: 6.00 Build 0)  -->
<!DOCTYPE svg PUBLIC "-//W3C//DTD SVG 1.1//EN" "http://www.w3.org/Graphics/SVG/1.1/DTD/svg11.dtd">
<svg version="1.1" id="Layer_1" xmlns="http://www.w3.org/2000/svg" xmlns:xlink="http://www.w3.org/1999/xlink" x="0px" y="0px"
	 width="1675.662px" height="1847.227px" viewBox="0 0 1675.662 1847.227" enable-background="new 0 0 1675.662 1847.227"
	 xml:space="preserve">
<g>
	<path fill="#CCC" d="M1322.309,1066.021l-336.444,64.201l-193.842-44.45l-257.424-19.751l-44.523,7.868l-35.728,12.5
		l-130.875-21.261l-187.094-71.52l37.731-6.694l-10.961-10.73l-4.81-8.018L28.136,971.85l-22.581-3.685l-4.513,6.416L0,1011.697
		l8.073,3.645l3.039,0.675l10.679,110.166l19.571,55.897l23.757,42.43l19.532,25.241l32.64,25.541l54.941,25.39l34.995,9.771
		l31.059,3.116l24.934-1.997l20.825-6.105l16.312-14.555l11.392-27.347l28.626-151.938l9.598-7.109l72.122,11.815l19.311,16.031
		l24.057,87.612l53.015,107.976l30.326,35.005l37.744,22.396l52.154,18.347l62.456,11.862l68.65,2.953l59.108-6.992l39.661-16.079
		l24.846-24.761l14.66-33.036l35.161-129.87l10.523-17.671l16.899-3.473l12.731-0.231l4.942-4.321l341.378-98.776L1322.309,1066.021
		L1322.309,1066.021z M306.964,1245.508l-13.166,37.127l-23.758,19.242l-35.738,3.791l-49.106-9.231l-47.847-17.172l-34.565-21.95
		l-26.579-27.157l-23.888-32.8l-19.352-40.251l-19.077-127.352l2.85-24.365l9.535-11.517l12.486-3.183l226.129,61.767l29.574,21.746
		l18.751,32.431l5.209,42.631L306.964,1245.508L306.964,1245.508z M897.743,1330.237l-31.78,54.509l-59.603,21.827l-96.592-0.404
		l-110.619-23.724l-26.889-11.277l-20.719-17.026l-29.285-33.756l-31.6-56.873l-27.664-86.371l-2.625-31.716l3.144-25.842
		l11.825-20.228l21.207-10.824l132.786-5.742l157.49,18.158l71.105,22.795l38.581,34.349l13.102,45.634L897.743,1330.237
		L897.743,1330.237z"/>
	<path fill="#CCC" d="M1330.018,1090.006c0,0-28.766-30.069-8.3-34.58c20.464-4.51,123.863-28.566,142.11-16.539
		c18.247,12.028,126.209,96.223,138.373,111.257c12.165,15.034-4.562,31.572-10.645,45.104
		c-6.082,13.531-95.796-102.236-124.687-117.271C1437.979,1062.944,1436.458,1061.44,1330.018,1090.006z"/>
</g>
<path fill="none" stroke="#000" stroke-miterlimit="10" d="M288.613,1301.39c0,0-27.201,98.774-32.201,121.774s-20,66-23,73
	s-32,62-6,89s78,53,101,38s63-12,71-6"/>
<path fill="none" stroke="#000" stroke-miterlimit="10" d="M268.497,1615c0,0,66.916,129.165,53.916,232.165"/>
<path fill="none" stroke="#000" stroke-miterlimit="10" d="M802.412,384.165c0,0-74.648,46.301-164.191,20.695
	c-40.729-11.647-84.54-38.171-125.809-90.695c0,0,94,48,145,32"/>
<path fill="none" stroke="#000" stroke-miterlimit="10" d="M638.221,404.86c0,0-211.809,76.305-285.809-90.695c0,0,56,47,120,19"
	/>
<path fill="none" stroke="#000" stroke-miterlimit="10" d="M424.013,396.392c0,0-163.601,76.772-241.601-82.228
	c0,0,116.109,64.613,180.055,19.807"/>
<path fill="none" stroke="#000" stroke-miterlimit="10" d="M316.412,414.921l-18,24.243c0,0-102,134-126,252s-62,132-62,166
	s32.156,92.252,47.927,111s35.53,47.419,35.53,47.419l6.625,19.282c0,0,2.918,27.298,3.918,32.298c0,0-13,17-13,33s1,43,7,55
	c0,0-6,100-2,138l2.563,14.984c0,0-12.563,68.016,37.437,180.016"/>
<path fill="none" stroke="#000" stroke-miterlimit="10" d="M176.129,675.094c0,0-22.961-163.837,43.661-306.883"/>
<path fill="#CCC" d="M961.788,46.564c0,0,292.624-7.4,524.624,228.6s174,446,186,584s-13.091,161.899-13.091,161.899"/>
<path fill="#CCC" stroke="#FFF" stroke-width="4.5" stroke-miterlimit="10" d="M234.578,336.552
	c0,0,47.834-93.387,153.834-163.387s145.618-134,249.809-158s262.191-24,416.191,84s358,266,508,562s84,496,74,550
	s-46,200.627-126,253.313s-94,62.687-106,62.687c0,0,44.07-22,56.035-54s59.965-52,35.965-108s-158-338-252-472s-318-442-482-542
	s-304.719-90.658-388.359-23.329"/>
</svg>
