<?xml version="1.0" encoding="utf-8"?>
<!DOCTYPE svg PUBLIC "-//W3C//DTD SVG 1.1//EN" "http://www.w3.org/Graphics/SVG/1.1/DTD/svg11.dtd">
<svg version="1.1" id="Layer_1" xmlns="http://www.w3.org/2000/svg" xmlns:xlink="http://www.w3.org/1999/xlink" x="0px" y="0px"
	 viewBox="0 0 337.1 306.7" enable-background="new 0 0 337.1 306.7" xml:space="preserve">
<path fill="#E9E9E9" d="M226,238.9l-0.8,0.2l-2.2,2.8l-6.1,2.7l0.1,0.4l3.7,0.3l-1.2,0.5l0.9,1.4l-2.6,0.4l-3.3,2.3l-2,2.9l-3,30.8
	l-1.9,2.3l-0.2,1.1l-1.3,0.5l-0.7-2.4l5.2-51.9l-1.1-1.8l-1.7-0.8l-0.5-1.1l1-0.7l2-0.3l1.1-1.6l1-2.7l0.2-3.2l0.6-1.5l-2.4-1.1
	l-19.1,5.1l-4.1,0.1l-23.3,6.6l-2.4,1.5l-3.6,0.4l-1.2-0.4l-2.1,1.6l0,0.1l2.6,1.6l11.7-3.8l2.3-1.4l3.1-0.4l1,0.1l7.2-1.5l0.1,0.4
	l-4.3,1.2l-6.7,4.8l0.2,0.5l1.6-0.6l4.4-2.7l2.7-0.9l0.7,0.3l-0.5,0.7l-13.5,9.5l-0.4,1.8l-0.8,1.2l-3.9,0.5l-0.7,0.6l0.1,4.3
	l0.4,0.2l25.4-22.1l-3.7,0.7l-0.1-0.4l11.3-3.1l0.1,0.3l-1.9,0.6l0.6,0.7l5.2-2.4l-0.8,2.2l-4.3,3.9l2.8-3.7l-0.3-0.3L166,254.2
	l-0.6-0.4l1.1-2.5l26.1-24l-0.2-0.3l-1.2,0.5l-27.7,22.5l-1.4,3.3l0.3,6.6l0.3,0.1l1.1-1l-0.1,9.3l0.5,0.2l4.9-6.3l31-25.7l0.8-0.1
	L184,251.9l-4.1,1.5l-16.2,16.4l-0.7,1.7l1,4.9l2.8-1.8l16.5-16.9l1.1-0.2l-0.1,1.1l-1.4,1.7l-0.1-1.1l-19.4,20.9l-7,23.1l-2.1,1.4
	l5.8-22.7l1.6-1.6l-1.6-1l0-1.6l0.8-0.8l0.4-3.7l-0.9-1.4l1.3-5.9l-1.6-8.8l0.4-4.7l-15.1,4l0.2,0.6l3.8-0.9l1.9,0.2l-1.7,0.7
	l-5.5,1l-0.9-0.1l-1.6,0.2l-21.9,7.6l-1.7,1l-5.9,2.3L111,269l-11.7,3.6l0.1,0.4l-9.6,4l-0.7-0.2l0.5-0.8l1.6-0.7L91,275l-2.9,0.9
	l-1.7,3.1l-21.7,9.2l-3,2.8l-0.4,0.6l0.8,0.3L90.3,281l0.5-0.1l0.2,0.3l-1.4,1l-38.9,18.6l2.5-2.4l7.2-3.4l-1.3-1.6l1-0.9l-0.3-0.5
	l-4.2,0.5l-2.3,1.7l-7.1,2.8l-1.4,1l0.4,1.4l-12.9,6.1l0.3-2.2l-5.2,0.4l2.6-1.3l-1.7-0.5l7.3-5.5L16.7,305l-7.9,1.5l-0.5-1
	l-1.5,0.9l-0.7-0.8l0.2-0.8l152.3-52.7l1.8-1.8l0-4.4l-1.4-1.2l-0.8-5.9L150,236l-5.2-32.5l-0.7-0.8l-6.2-22.7l-1.3-2.4l-3.8-18
	l-1.4-2.1l-4-13.7l0-1.5l0.5-2.9l2.8-4.3l2.9-45.2l-0.8-4.8l0.5-0.7l0.4,1.9l1.4,1.5l2.2,14.2l-0.7,2.3l2.7,17.4l14.6-13.8l4.5-2.9
	l0.8-0.2l0.2,0.3l-12.7,11.1l3-0.4l-0.5,0.9l-9.8,8.4l0.2,2.6l1,0.9l6.2-1.8l-2.9,0.4l-0.1-0.3l0.9-0.5l53.1-12.1l0.1,0.5l-5.6,2.1
	l0,0.3l2.4,0.1l-0.1-0.2l6.7-2.7l1.3-0.2l0.6-0.5l0.5-4l-4.7,2.9l-1.6-0.2l-0.9,0.1l-3.8,1.6l-1.2,0l0.9-0.9l9.5-3.4l3.4-3.6
	l0.9-5.3l-8.5,4.5l2.5-0.8l0.2,0.3l-4.6,2.9l0.1,0.2l5.7-2.3l0.1,0.3l-9.7,5.3l-1.6,1.4l-2.9,0.6l6.3-5.7l-0.2-0.3l-16.3,9.8
	l-0.2-0.5l3.9-2.9l0-1.5L206,99.7l0.4-0.9l-1-0.1l-4.8,2l-5.3,1L179,111.7l0.4-1l-1-0.4l3.6-3.5L179,109l0.3,0.4l8.7-6.5l17.1-5
	l0.9-3.4l3.3-4.7l2.3,4.1l0.8,0.2l0.8-0.6l5.8-13.1l0.9-0.4l0.2,0.9l-5.6,12.1l0.1,1.1l1.2-1.4l-4.6,3.4l1.1,7l-1.2-0.9l-2.4,25.2
	l0.6,0.3l4-4.2l1.5-0.9l-0.4-0.9l0.1-1.1l0.6-0.2l3.9,17.1l3.1,5.9l-0.5,2.6l0.2-1.2l0.6-0.7l0.6,1l-1.4,1.7l-0.8-0.2l-1.8-1.2
	l-4.1-0.7l-1.7,2.6l2.7,0.7l-1.5,1.1l-0.6,0.9l1.2,3.9l0.4-0.1l-0.3-2.6l0.1-1l0.8,0.7l0.4,0.9l0.7-0.5l0.3,0.2l-1,1.9l0.8-0.2
	l0.1,5.5l12.4,34.9l-0.3,0.6l0.9,1.9l0.6,0.6l1.1,6.8l-0.7,1.6l-1,0.9l-2.8,4.5l1.2,0.4l-4.5,4.5l-1.8,1l-0.6-1l1.6-4.6l0.2-3
	l0.7-1.4l-1.5-0.9l1.9-1.8l1,2.5l-0.1,0.2l-0.1,2.6l0.8-9.5l1.7-0.6l-3.1-8.9l-3.9-1.2l-0.1,7.7l-0.9-1.6l-1.7-1l-1.2-2.9l-0.2,1
	l0.8,8.6l3.9,6.9l-0.3,4.1l-0.8,3l-1.3,0.5l0.1,1.9l2,0.4l2.2-0.7l0.2,0.5l-3,1.3l-6.3,0.3l0.2,0.4l-0.6,2.5l9.4-2.9l0,5.7l0.9,2.6
	l-0.6,1.1l-8.5,2l-1.5,0.7l0,0.4l1.2,0.3l9.6-2.4l12.8,1.6l11-3.9l3.2,1.2l3.2-1.2l1.1-1.8l18-3.2l3.3-1.6l0.8-0.2l3-0.1l3.6-1.3
	l2.9-0.1l22-5.3l9.1-4.4l1.3,0.6l6.4-0.7l-0.9,0.5l0.4,0.2l3.1-1.5l4.7-0.7l1.6,0.1l2-0.3L237,235.2l0.3-1.3l-6.3,1.9L226,238.9
	L226,238.9L226,238.9z M202.6,191l4.1-1.2l2.4-2.5l0.3-3.6l-6-18.4l-1.3-1.6l-49.2,13.8l-1.7,0.9l-4.2,1.3l-0.7,0.9l1-0.1l1,0.2
	l-0.5,6.6l0.3,0.1l4.3-3.6l-0.5-0.1l-2.6,0.3l-0.8-0.3l0-0.5l3.4-0.9l4.1,0.5l1.3,0.8l2.9,1.1l2.8-1.3l0.3,0.7l1.4-0.8l0.6,0.7
	l1.7,1.1l1.7-0.3l0.1,0.4l-4.5,2.8l-4,0.6l-1.3,0.9l-5.3-1l-5.8,3.2l6.4,30.2l-0.3,1.7l-0.8-1.4l-0.6-1.9l-0.5,0.2l0.8,4.2l0.9,0.9
	l3.6-1.9l53.4-15l3.3-2.2l1.1,1.3l0.8-1l0.6-1.6l-1.5-3.6l-0.8,1.1l-0.7-7l-1.2,0.8l-0.1-1.1l-1.6-1.5l-3.1,1.5l-0.8,0.7l-6.9,1.5
	l-1.3,1.4l-7.3,3.3l-0.9-0.1l0.4-0.9l11.9-7.2l-6.6,0.8l-1.1-0.3l1-0.7l6.1-1L202.6,191L202.6,191z M189,159.8l0.4-0.2l4.7-0.6
	l4.7,1.9l1.8,0.3l3.2-2.8l0.7-1.2l0.6-2.4l-9.6-30.2l0.1-0.9l0.8,0.2l1.2,1.1l0.9-2l-2.3-0.4l-4.3,0.7l-2.1,2.6l-4.8,1.8l-50.3,9
	l-1,0.9l-0.6,6.6l0.8,7l1.6,4.8l-0.5,0.2l-1-2.4l1.5,9.4l1.2,1.5l2.1,10.4l2.1,4.6l1,0.4l46.6-15.1l1.6-1l1.3-0.4l2.8,0l1.3-0.8
	l-1.5-0.8l-3.8,0.2l-0.8-0.5L189,159.8L189,159.8z M160.4,225.6l0.5,1.1l-3.4,3.2l1.5,0.7l29.7-9.4l0.4,0l0.1,0.9l23.2-4.4l0.8-1.1
	l0.1-5.6l-1-1L160.4,225.6L160.4,225.6z M212.7,245.9l0.6,2.1l2.2-0.7l-1.4-2l-0.3,0.1l0.7-1.9l-2.2,0.3l1.9-1.5l1.6-2.4l-3.9,1.3
	v-7.1l-2.1,9.4l-0.6,18.7l0.6,2.2l1.2-3.8l-0.6-1.5l0.4-0.9l0.7-6.2l-0.5-0.6l0-2l1.1-1.9L212.7,245.9L212.7,245.9z M168.8,127.4
	l12.2-2.5l0.9-0.6l-0.7-0.8l-0.6-1.7l-1.4-1.3l-9.9,2.8l-1.4,1.4l-0.7,1.8l0.5,0.9L168.8,127.4L168.8,127.4z M34.3,300.2l22.6-9.1
	l6.6-4.3l-0.9,0l-26.8,11.7L34.3,300.2L34.3,300.2z M209.9,136.4l3.2-3.4l1-2.7l-1.2-0.5l-4.2,3.2l-0.8,1.3l1.3,4.7l2.6,0.9l2.1-1.3
	l1.8-4l-2.4-0.6l-2.4,2.2L209.9,136.4L209.9,136.4z M213.2,238.8l12.5-3.7l0.3-1l-1.6-0.9l-10.5,1.2l-0.9,0.9l-0.3,2.5L213.2,238.8
	L213.2,238.8z M211,169.9l-0.5,1.2l3.8,16.9l0.4-0.1l-0.5-5.5l-0.9-1.4l-0.1-2.3l0.7-0.9l0.9,0.4l0.8,1.1l0.4-6l-0.8-0.6l-3.4-1.5
	L211,169.9L211,169.9z M174.7,231.1l-0.1-0.2l-5.2,2.4l-5.7,5.3L162,241l0.1,1.3l1.2-0.5l6.9-7.4L174.7,231.1L174.7,231.1z
	 M152.4,129.9l-0.4-0.3l-8.5,0.2l-2.7,1.5l0,1l1.1,0.2L152.4,129.9L152.4,129.9z M209.4,175.4l0.6-1.8l-2.8-10.9l-0.5,0.1l0.1,1.7
	l-0.3,2.1l2.3,7.8L209.4,175.4L209.4,175.4z M208.3,131.7l4.2-2.7l0.6-4.1l-2.6,2.4l0.2,0.3l0.8-0.1L208.3,131.7L208.3,131.7z
	 M213.6,224.6l0,2.7l0.8,0.5l4.6-0.8l0.1-0.4l-1.3-1L213.6,224.6L213.6,224.6z M223.8,185.2l-1.2-2.6l-0.8-0.6l-1.1,1.3l0.2,3.8
	l0.4,0.8l0.6,0L223.8,185.2L223.8,185.2z M218.5,170.5l-0.7,0.1l0,4.8l2.4,1.5L218.5,170.5L218.5,170.5z M206.6,122.6l0.3,0.1
	l1.8-15.2L206.6,122.6L206.6,122.6z M167,128.9l0.2,0.4l9-1.1l0-0.6l-1.9-0.5l-6.1,1.1L167,128.9L167,128.9z M196.3,120.1l4.5-1.7
	l-0.2-1l-2.8,0.7L196.3,120.1L196.3,120.1z M123,263.5l-0.2-0.7l-14.3,4.6l0.2,0.5L123,263.5L123,263.5z M86.5,276.8l-7.8,2.7
	L86.5,276.8L86.5,276.8z M205.8,152l0.9-1.1l0.6-1.5l-0.1-1.2l-1-1.3l-0.9,1.5L205.8,152L205.8,152z M161.1,235.3l-1.6,0.8l0.1,1.5
	l2.4-0.5l2.3-1.5l-2.8,1.1L161.1,235.3L161.1,235.3z M154,234.5l-1.8-6.5L154,234.5L154,234.5z M217.7,207.5l-0.4,0.1l1,6.2l0.8-1.4
	L217.7,207.5L217.7,207.5z M171.6,121l-0.1-0.4l-22.4,5.7l0.1,0.5L171.6,121L171.6,121z M166.4,239.9l0.3,0.4l4.5-3.7l0.3-1
	l-0.9,0.2L166.4,239.9L166.4,239.9z M215,164.7l0.6-0.4l-1-4.7l-0.5,3L215,164.7L215,164.7z M205.2,136.9l-0.3,4.3L205.2,136.9
	L205.2,136.9z M203.5,137.5l0.3-3.4l-0.5-1l-0.9,0.8L203.5,137.5L203.5,137.5z M214.1,216.6l1-5.5L214.1,216.6L214.1,216.6z
	 M192.9,102.4l-5.2,2.5L192.9,102.4L192.9,102.4z M202.8,119.9l-1.3,1.9l1.3,2V119.9L202.8,119.9z M219.1,177.7l-0.6,2l0.8,1
	l1.4-1.1L219.1,177.7L219.1,177.7z M31.7,296.3l0.2,0.5l6.7-2.9l-0.2-0.4L31.7,296.3L31.7,296.3z M164.3,233.6l3.7-1L164.3,233.6
	L164.3,233.6z M146,188l0.6-0.1l-1-5.8l-0.4,0.1L146,188L146,188z M142,180.9l0.7,4.2l0.6-0.1l-0.3-2.2L142,180.9L142,180.9z
	 M135.7,173.6l0.4-0.1l-1.3-6.3l-0.5,0.1L135.7,173.6L135.7,173.6z M189,123.7l-3.8,1l0.1,0.4L189,123.7L189,123.7z M150.4,221.3
	l0.4-0.1l-1.2-5.5l-0.5,0.1L150.4,221.3L150.4,221.3z M151.7,128.4l-0.1-0.6l-3.8,0.6l0.1,0.4L151.7,128.4L151.7,128.4z
	 M213.3,141.6l-0.3-0.5l-2.1,0.8l-0.3,0.7l0.8,0.2L213.3,141.6L213.3,141.6z M135.2,99.2l-0.5,0l-0.5,1.8l0.4,0.8l0.7-0.7
	L135.2,99.2L135.2,99.2z M155.9,228.4l0.1-0.4l-1.4-1.2l-0.8,0.4l0.9,1L155.9,228.4L155.9,228.4z M136.5,125.5v3.8V125.5
	L136.5,125.5z M144.1,191.6l0.5-0.1l-0.6-2.8l-0.4,0.1L144.1,191.6L144.1,191.6z M133.3,130.3l-0.6,0.2l0.4,3.7l2.3,0.4L133.3,130.3
	L133.3,130.3z M138.7,176.6l1.3,3.1L138.7,176.6L138.7,176.6z M147.6,189.3l0.5,0.4l1.3-1.2l-1-0.4L147.6,189.3L147.6,189.3z
	 M72.2,281.4l0.1,0.5l3-0.9l-0.1-0.5L72.2,281.4L72.2,281.4z M200.2,115.7l0.2,0.7l1.6-0.4l-0.1-0.8L200.2,115.7L200.2,115.7z
	 M207.9,156.8l-0.4,0l-0.4,1.4l0.4,0.7l0.5-0.6L207.9,156.8L207.9,156.8z M149.7,212.5l-0.7,0l0,1.7l0.6,0L149.7,212.5L149.7,212.5z
	 M145,194.7l-0.5,0.1l0.6,3.5l0.3-0.1L145,194.7L145,194.7z M212.6,188.3l0.3-0.1l-1-3.2l-0.4,0.1L212.6,188.3L212.6,188.3z
	 M208.8,162.5l-0.6,0l0.2,1.8l0.6-0.1L208.8,162.5L208.8,162.5z M319.9,210.8l-0.2-0.5l-1.8,0.8l0.2,0.4L319.9,210.8L319.9,210.8z
	 M208.2,152.2l-0.5-0.1l-0.3,2l0.5,0.1L208.2,152.2L208.2,152.2z M133.8,88.5l0.6,0.1v-1.7l-0.3-0.1L133.8,88.5L133.8,88.5z"/>
<path fill="#E9E9E9" d="M187.8,33.2l0.5,0.4l4.4,1.8l-0.1-0.8l-4.9-9.3l-3.6-1l-1.5,0.3l-0.2-0.5l1.3-0.8l0.2-1.6l-3.1-2.2l2,0.4
	l0.1,0.2l1.7,0.9l-0.2-1.7l-0.3-0.7l0,0l1.1,1.3l1.9,0.3l10.1-3.6l2.9,0.6L194.4,5l-5.5-4.2l5.4,3L193.2,0l10.6,22.3l-0.4,0.9
	l-7.9-5.5l-3.3,0.9l0,0.4l1.6,0.5l-5.5,2.2l1.8,0.5l1.1,0.8l-0.9,0.8l-0.4,0.2l-0.6,1.7L202.7,48l0.9-0.3l3.7-6.6l0.1-0.8l-3.2,2.4
	l-0.6-0.1l0-0.6l10-17.1l3.9-1.8l-8.9,12.7l0.1,0.8l0.8-0.3l7.3-5.8l1.5,0l2.2,1.5l2,0.4l1.1,0.5l19.7,19l1.6-0.4l2.4-10.9l-7.1-8.5
	l-5.2-2.9l-3.5-3.5l-3-0.8l-1.9-2.3l2.7,1.2l2.2-0.1l2.5,1.3l0.8,1l2.1-5l0.5,0.2l-0.8,2.6l1.2,4.6l8.8,9.7l0.5-0.8l-0.7-3.8
	l0.9,0.2l0.8-0.2l0.5-1l0.8,2.8l-4,22.6l-0.9,1.7l-1.9,2.3l-6.9,2.1L233,64l3.7-2l4.4-0.9l1.4-0.9l-3.2-5.6l0.3-1.7l-0.9-1.6
	l-1.6-1.7l-0.9,0.9l0.5,1.4l1.3,0.2l0.4,7.2l-0.6,0.9l-0.6-0.7l-0.9-2.7l-1.7,5l-0.8-1.1l-1.5-1.3l2.9-6.7l0,0.5l-0.3,0.8l-0.6-0.7
	l-2-6.7l-0.4,0.1l0.3,2.8l-1,2.2l-2.3-8.5l-2.6-3.6l-0.1,1l1.6,5.1l-0.1,1.3l-1-0.7l-2.1-7.1l-1.6-2.6l1.7,7.2l-0.6,0.2l-4.3-11.3
	l-0.8-0.6l-0.5,0.8l0.6,2.2l-1.7-0.5l-0.2,0.1l-0.9,1.6l-1.2-1.2l-1.2-0.2L214,38l-1.6,0.1l-0.2,1.1l-0.4,1.2l-1.1-0.6l-0.7-0.6
	l-0.1,1.7l-1.5,1.9l-0.8,0.6l-2.6,5.2l-0.2,2.8l3,4.5l0.7,4.3l-0.5,0.2l-11.7-17.6l-4.9-4.2l-5.6-2.4l-0.9-1l1.5-0.4l0.1,0l1.6,0
	L187.8,33.2L187.8,33.2L187.8,33.2z M240.5,51.6l1.5,3.7L240.5,51.6L240.5,51.6z M230.4,44.2l0.7,3L230.4,44.2L230.4,44.2z
	 M212.8,36.2l-0.4-0.2l-0.8,1.7l0.4,0.2L212.8,36.2L212.8,36.2z M234.3,47.8l0.5,1.9L234.3,47.8L234.3,47.8z"/>
<path fill="#E9E9E9" d="M186.1,68.5l1.4-0.7l5,9.9l-0.1,2l-0.3,0.9l-3.7-1.7l-7,2.7l6.5,0.6l0.5,0.5l3.4,4.2l2,4.5l-0.5,2.5
	l-0.6-2.6l-2,3.8l0.5,1l-5.1,1.5l-5.1-2.1l0.5,1.5l4.1,3.1l3.2,0.7l-0.1,0.5l-1.9-0.1l-8.4-2.4l-4.6,0l-0.1,1.2l-5.9-1.8l-2-3
	l3-16.7l1.1-2.4l1-0.5l19.9,2.8L186.1,68.5L186.1,68.5L186.1,68.5z M179.4,98l0.4-5.6l1.8-6.4l-2.5-3.9l2-2.1l-2.5-1.1l-4.3,1.1
	l-0.6,1l-3.1,13.8l0.6,1.4L179.4,98L179.4,98z"/>
<path fill="#E9E9E9" d="M176.5,70.1l1.7,0l2.7,0.6l0.3,1.2l-5.9-0.4l-1.5,0.3l-1.1-0.3l0.6-1.1l3.1-1.8l-6.9-1.8h6l-4.8-3.2
	l-3.5-0.2l1.1-0.8l-0.4-0.1l-7.6,0.4l-1.1-0.7l4-0.7l0-0.4l-0.9-0.7l-5.1-0.6l-1.6-1.1l1.8-0.2l0.1-0.4l-5.3-2.6l-0.4-0.8l1-0.1
	l3.9,1.4l0.3-0.4l-2-2.6l0.4-0.6l8.8,6.1l4.2,1.7l0.4-0.2l3.6-3.4L174,58l-0.6,1.8l-0.8,1.3l0.6,1.4l5.2,5.5l0.5,1.1l-2.4,0.6
	L176.5,70.1L176.5,70.1z M170.2,60l3.3-1.5l-0.1-0.7l-0.8,0L170.2,60L170.2,60z"/>
<polygon fill="#E9E9E9" points="190.8,237.6 193.5,235.6 193.6,235.7 182,248.2 181.7,248 184.9,242.9 184.5,242.6 170,255.9 
	170,255.9 181.8,241.3 165.8,257.7 165.4,257.4 184.4,238.4 181.8,243.2 183.9,241.8 186.9,242 190.8,237.6 190.8,237.6 
	190.8,237.6 "/>
<path fill="#E9E9E9" d="M236.7,17.6l-3.3-0.9l-0.2,0.3l0.4,0.6l3.9,0.8l1,0.5l-0.8,0.9l-1.3-0.1l-3.5-1.1l-2.2,0.5l-1.8,1.2
	l-0.6-2.1l-2.6-2.2l-2.2,1.7l-0.5,1.5l0.4,3.3l-1-0.2l-1.5-0.9l0.3-1.8l1.7-2.5l0.6-2l-0.3-2.9l1.2-1.7l1.7-0.3l2.4,0.6l0.5,1.3
	l0.6,5.2l1.2,0.4l1.4-1.7l0.1-0.9l0.9,0.2l3.4,2.3L236.7,17.6L236.7,17.6z M227.1,11.8l0.1,0.5l-2.9,0.8l0.1,1l2.4,0.9l1-1.6L228,12
	l-0.3-0.7l-3.4,1L227.1,11.8L227.1,11.8z"/>
<path fill="#E9E9E9" d="M140.4,10.3l7.7-3.5l-5.6,3.3l-4.7,11.4l-1.3-2.2l0.9-6.7l-0.1-1.1l-0.3-0.1l-1.2,2.7l-0.5-0.2l0.3-1
	l0.7-6.4l-0.5-3.8l2.6,8.1l0.9,0.4L140.4,10.3L140.4,10.3z M138.4,15.8l-0.7-0.2l-0.8,3.4l0.6,0.1L138.4,15.8L138.4,15.8z"/>
<polygon fill="#E9E9E9" points="187.8,33.2 185.2,30.5 182.8,29.4 172.4,28.1 170.3,27.1 170.5,26.5 182.2,28.4 182.3,28.1 
	180.7,25.2 189.4,30.9 188.4,31.8 187.8,33.2 187.8,33.2 "/>
<polygon fill="#E9E9E9" points="190.8,237.6 190.8,237.6 188.9,238.8 188.6,238.7 189.3,237.6 205.3,222.9 209.4,220.8 209.6,221.2 
	208.8,221.7 192.1,235.7 190.8,237.6 "/>
<polygon fill="#E9E9E9" points="230.4,10.9 234.7,13.1 235.9,13.3 238.6,13.2 239.4,15.3 239,16.1 238.2,15.9 230.2,11.4 
	230.4,10.9 "/>
<polygon fill="#E9E9E9" points="186.1,68.5 182.4,62.2 182.1,58.7 182.7,58.1 182.8,60.3 185.8,66.9 186.1,68.5 186.1,68.5 "/>
<polygon fill="#E9E9E9" points="228,24.8 224.8,24.9 222.1,23.7 221.3,23 222.4,23 228,24.8 "/>
<polygon fill="#E9E9E9" points="136.2,22.1 135,34.8 134.4,34.8 136.2,22.1 "/>
<polygon fill="#E9E9E9" points="170,255.9 169.6,256.7 165.5,260.9 164.8,261 170,255.9 170,255.9 "/>
<polygon fill="#E9E9E9" points="184.2,18.6 179.5,13.1 184.2,18.6 184.2,18.6 "/>
<polygon fill="#E9E9E9" points="200.5,91.5 195.7,87.2 200.5,91.5 "/>
<polygon fill="#E9E9E9" points="262.1,231.9 252.3,235.2 262.1,231.9 262.1,231.9 "/>
<polygon fill="#E9E9E9" points="178.9,74.2 183.6,73.6 183.6,74.2 179,74.8 178.9,74.2 "/>
<polygon fill="#E9E9E9" points="132.2,79.9 131.6,74.4 132.2,74.4 132.6,79.8 132.2,79.9 "/>
<polygon fill="#E9E9E9" points="174.5,8 177.1,9.8 175.1,9.8 174.2,8.3 174.5,8 "/>
<polygon fill="#E9E9E9" points="133.4,64.8 134.2,54 134.1,64.8 133.4,64.8 "/>
<polygon fill="#E9E9E9" points="134.3,74.8 134.3,77.4 134.1,77.4 133.9,74.8 134.3,74.8 "/>
<polygon fill="#E9E9E9" points="131.6,73.2 131.6,70.8 131.8,70.7 132.1,73.1 131.6,73.2 "/>
<polygon fill="#E9E9E9" points="2.1,306.5 0.1,306.7 0,306.3 2,305.9 2.1,306.5 "/>
<polygon fill="#E9E9E9" points="196.9,84.7 195.6,83 195.9,82.8 197.3,84.4 196.9,84.7 "/>
<path fill="#E9E9E9" d="M162.8,145.8l-1.6-4.4l-0.7-4.6l5.3-1.9l5.5,0.3l0.3,7.5L162.8,145.8L162.8,145.8z"/>
</svg>
